<?xml version="1.0" encoding="UTF-8" standalone="no"?>
<!-- Created with Inkscape (http://www.inkscape.org/) -->

<svg
   xmlns:dc="http://purl.org/dc/elements/1.1/"
   xmlns:cc="http://creativecommons.org/ns#"
   xmlns:rdf="http://www.w3.org/1999/02/22-rdf-syntax-ns#"
   xmlns:svg="http://www.w3.org/2000/svg"
   xmlns="http://www.w3.org/2000/svg"
   xmlns:sodipodi="http://sodipodi.sourceforge.net/DTD/sodipodi-0.dtd"
   xmlns:inkscape="http://www.inkscape.org/namespaces/inkscape"
   width="210mm"
   height="297mm"
   viewBox="0 0 210 297"
   version="1.1"
   id="svg206"
   inkscape:version="0.92.0 r15299"
   sodipodi:docname="Maski_znaków.svg">
  <defs
     id="defs200" />
  <sodipodi:namedview
     id="base"
     pagecolor="#ffffff"
     bordercolor="#666666"
     borderopacity="1.0"
     inkscape:pageopacity="0.0"
     inkscape:pageshadow="2"
     inkscape:zoom="1.7801131"
     inkscape:cx="502.72113"
     inkscape:cy="511.93234"
     inkscape:document-units="mm"
     inkscape:current-layer="layer1"
     showgrid="false"
     inkscape:window-width="1280"
     inkscape:window-height="961"
     inkscape:window-x="-8"
     inkscape:window-y="-8"
     inkscape:window-maximized="1" />
  <metadata
     id="metadata203">
    <rdf:RDF>
      <cc:Work
         rdf:about="">
        <dc:format>image/svg+xml</dc:format>
        <dc:type
           rdf:resource="http://purl.org/dc/dcmitype/StillImage" />
        <dc:title />
      </cc:Work>
    </rdf:RDF>
  </metadata>
  <g
     inkscape:label="Layer 1"
     inkscape:groupmode="layer"
     id="layer1"
     style="display:inline;opacity:1">
    <path
       style="display:inline;opacity:1;fill:none;stroke:#000000;stroke-width:0.26664045px;stroke-linecap:butt;stroke-linejoin:miter;stroke-opacity:1"
       d="m 88.016428,149.82144 c 1.07791,-1.20375 2.513472,-1.83487 4.031492,-2.33394 1.6234,-0.50905 2.84833,-0.32027 4.13145,-0.2334 1.32229,0.42761 2.55975,0.65713 4.13144,1.6671 1.20914,1.06695 2.10028,2.13389 2.59881,3.20084 0.95298,1.59999 1.1216,3.04299 1.19946,4.46783 0,1.39813 -0.28975,2.68029 -0.733,3.901 -0.49633,0.90093 -1.0634,1.78769 -1.99909,2.60068 -0.85492,0.82811 -1.75281,1.63474 -3.1319,2.20058 -1.35928,0.72532 -2.82076,0.73474 -4.26472,0.86688 -1.73006,-0.0914 -2.91939,-0.7239 -4.13144,-1.33368 -1.060012,-0.69208 -2.086852,-1.45875 -2.932002,-2.63401 -0.96866,-1.33245 -1.41703,-2.7222 -1.76684,-4.50118 -0.0776,-1.51122 -0.003,-2.95631 0.60071,-4.43447 0.48817,-1.2211 1.15803,-2.39025 2.26563,-3.43423 z"
       id="path172"
       inkscape:connector-curvature="0"
       sodipodi:nodetypes="ccccccccccccccc" />
    <path
       style="fill:none;stroke:#000000;stroke-width:0.26458332px;stroke-linecap:butt;stroke-linejoin:miter;stroke-opacity:1"
       d="m 53.947995,163.62742 10.45738,-18.23473 c 0.35469,-0.44234 0.82009,-0.55258 1.31374,-0.57804 0.33971,0.0591 0.57848,0.11276 1.10354,0.63059 l 10.24719,17.81434 c 0.28766,0.50798 0.20907,1.01595 0.15765,1.52393 -0.52023,0.5891 -0.85168,0.4948 -1.2612,0.68315 l -21.01986,0.0525 c -0.71475,-0.46349 -0.57124,-0.42458 -0.84079,-0.63059 -0.29695,-0.42038 -0.19525,-0.84077 -0.15765,-1.26115 z"
       id="path4941"
       inkscape:connector-curvature="0"
       sodipodi:nodetypes="cccccccccc" />
    <path
       style="fill:none;stroke:#000000;stroke-width:0.26458332px;stroke-linecap:butt;stroke-linejoin:miter;stroke-opacity:1"
       d="m 138.72004,147.76489 16.1853,-0.1051 c 0.18439,0.0195 0.39341,0.0944 0.57804,0.23647 0.11335,0.1592 0.1707,0.32773 0.2102,0.49923 l -0.0525,16.50059 c -0.054,0.12759 -0.12106,0.25255 -0.23647,0.36785 -0.10119,0.12221 -0.20781,0.23977 -0.39412,0.28902 l -16.31667,-0.0263 c -0.16078,-0.12403 -0.28248,-0.25782 -0.39413,-0.39413 -0.14398,-0.13505 -0.24657,-0.30115 -0.34157,-0.47294 l -0.0525,-16.26412 c 0.0915,-0.12821 0.14732,-0.28623 0.33228,-0.39107 0.14098,-0.13748 0.31718,-0.17394 0.48214,-0.2395 z"
       id="path4968"
       inkscape:connector-curvature="0"
       sodipodi:nodetypes="ccccccccccccc" />
    <path
       style="display:inline;opacity:1;fill:none;stroke:#000000;stroke-width:0.20439078px;stroke-linecap:butt;stroke-linejoin:miter;stroke-opacity:1"
       d="m 111.06361,156.22261 8.84443,-8.83732 c 0.11215,-0.0894 0.26831,-0.16221 0.448,-0.1853 0.14991,0.0249 0.27415,0.0852 0.3902,0.1568 l 9.04679,8.97983 c 0.0405,0.0985 0.0723,0.20268 0.0723,0.32783 0.0116,0.12119 0.0176,0.24281 -0.0578,0.3706 l -8.98897,8.8373 c -0.15665,0.0199 -0.29717,0.0134 -0.43356,0 -0.15347,0.005 -0.30125,-0.0296 -0.44799,-0.0713 l -8.97447,-8.79458 c -0.0202,-0.11919 -0.0764,-0.23519 -0.0323,-0.39241 0.002,-0.15106 0.0788,-0.26642 0.13346,-0.39148 z"
       id="path4968-4"
       inkscape:connector-curvature="0"
       sodipodi:nodetypes="ccccccccccccc" />
    <path
       style="fill:none;stroke:#000000;stroke-width:0.26458332px;stroke-linecap:butt;stroke-linejoin:miter;stroke-opacity:1"
       d="m 168.5406,146.76205 16.29812,0.14111 0.0705,21.20167 -16.15701,-0.21167 z"
       id="path12"
       inkscape:connector-curvature="0" />
  </g>
</svg>
